<svg fill="none" height="135" viewBox="0 0 135 135" width="135" xmlns="http://www.w3.org/2000/svg" xmlns:xlink="http://www.w3.org/1999/xlink"><clipPath id="a"><path d="m0 0h135v135h-135z"/></clipPath><g clip-path="url(#a)"><path d="m14.5 82.5-15.5-15.5 51-51h31z" fill="#000"/><path d="m38.5 106-15.5-15.5 15.5-15.5 11.5-11.5h31l-27 27 28 28h-31z" fill="#000"/><path d="m38.5 106-15.5-15.5 15.5-15.5m0 31 15.5-15.5m-15.5 15.5 12.5 12.5h31l-28-28m0 0-15.5-15.5m15.5 15.5 27-27h-31l-11.5 11.5m-39.5-8 15.5 15.5 66.5-66.5h-31z" stroke="#000"/><path d="m108.448 39.6813c-.465-.35-1.089-.4067-1.61-.1462-.522.2607-.851.7929-.85 1.3758l.001 6.644-4.061 2.7067-4.0637-2.7103-.0025-6.6452c-.0002-.5824-.3297-1.1146-.8507-1.375-.5211-.2601-1.1445-.2035-1.6102.1465-.4094.3073-.8007.6469-1.1631 1.0093-2.0535 2.0535-3.1835 4.7834-3.1819 7.6868.0015 3.5318 1.7478 6.8589 4.6106 8.884l.0064 19.3472c-.5072.3581-.9839.7595-1.4239 1.1994-2.0523 2.0523-3.1821 4.7809-3.1813 7.6831.001 3.4516 1.5866 6.6218 4.3501 8.6976.4657.3498 1.0895.4065 1.6107.146.5208-.2602.8502-.7931.8502-1.3757l-.0018-6.644 4.0611-2.7068 4.064 2.7106.002 6.6446c.001.5824.33 1.1147.851 1.375.521.2602 1.144.2036 1.61-.1463.41-.3075.801-.6471 1.164-1.0096 0 0 0-.0003 0-.0004 2.053-2.0529 3.183-4.7824 3.182-7.6858-.002-3.5321-1.748-6.8592-4.612-8.8844l-.006-19.3468c.507-.3583.984-.7599 1.424-1.1998 2.053-2.0525 3.183-4.7809 3.181-7.683-.001-3.4518-1.586-6.6216-4.35-8.6973zm-5.473 18.6072.069 17.2803c.001.2988-.12.5696-.315.7653-.194.1937-.461.3141-.757.3153-.594.0024-1.078-.4775-1.08-1.0718l-.07-17.2803c-.002-.5946.478-1.0782 1.072-1.0805.595-.0025 1.078.4774 1.081 1.0717z" fill="#838383"/></g></svg>